<?xml version="1.0" encoding="utf-8"?>
<!-- Generator: Adobe Illustrator 22.1.0, SVG Export Plug-In . SVG Version: 6.00 Build 0)  -->
<svg version="1.1" id="Layer_1" xmlns="http://www.w3.org/2000/svg" xmlns:xlink="http://www.w3.org/1999/xlink" x="0px" y="0px"
	 viewBox="0 0 207.9 26.6" style="enable-background:new 0 0 207.9 26.6;" xml:space="preserve">
<style type="text/css">
	.st0{fill:#007C82;}
	.st1{fill:#333D47;}
</style>
<title>williams_lea_logo_2color_rgb</title>
<path class="st0" d="M10.8,6.4c5.1,0.3,9.2,4.3,9.5,9.4c-2.6-0.1-6.5-0.8-7.6-1.9S11,9,10.8,6.4"/>
<path class="st0" d="M20.3,17.1c-0.3,5.1-4.3,9.2-9.4,9.5c0.1-2.6,0.8-6.5,1.9-7.5S17.7,17.3,20.3,17.1"/>
<path class="st0" d="M9.5,26.6c-5.1-0.3-9.2-4.3-9.5-9.4c2.6,0.1,6.5,0.8,7.6,1.9C8.7,20.1,9.3,24,9.5,26.6"/>
<path class="st0" d="M0,15.9c0.3-5.1,4.3-9.2,9.4-9.5C9.3,9,8.7,12.9,7.6,14S2.6,15.7,0,15.9"/>
<path class="st1" d="M27.2,7.3h3.3l5.1,15l5-15h3.3l5,15l5-15h3.3l-6.6,18.1h-3.3l-5-14.2l-5,14.2h-3.3L27.2,7.3z"/>
<path class="st1" d="M62.4,0.7c0.7,0.8,0.7,2.1,0,2.9c-0.8,0.8-2,0.8-2.8,0c0,0,0,0,0,0c-0.8-0.8-0.8-2.1,0-2.9
	C60.3-0.1,61.6-0.1,62.4,0.7C62.4,0.6,62.4,0.6,62.4,0.7z M59.4,7.3h3.2v18.1h-3.2V7.3z"/>
<path class="st1" d="M67.4,0h3.2v25.4h-3.2V0z"/>
<path class="st1" d="M75.6,0h3.2v25.4h-3.2V0z"/>
<path class="st1" d="M86.6,0.7c0.7,0.8,0.7,2.1,0,2.9c-0.8,0.8-2,0.8-2.8,0c0,0,0,0,0,0c-0.8-0.8-0.8-2.1,0-2.9
	C84.5-0.1,85.8-0.1,86.6,0.7C86.6,0.6,86.6,0.6,86.6,0.7z M83.6,7.3h3.2v18.1h-3.2V7.3z"/>
<path class="st1" d="M102.7,25.4v-2.5c-1.3,1.8-3.4,2.7-6.3,2.7c-1.1,0-2.3-0.2-3.3-0.7c-0.9-0.4-1.7-1.1-2.2-2
	C90.4,22,90.1,21,90.1,20c-0.1-1.5,0.6-2.9,1.8-3.9c1.5-1,3.2-1.5,5-1.5h5.8v-0.9c0.1-1.1-0.4-2.2-1.2-3c-1-0.7-2.2-1.1-3.4-1
	c-2,0.1-4,0.8-5.6,2l-1.3-2.2c1.1-0.8,2.3-1.4,3.6-1.8c1.3-0.4,2.6-0.6,4-0.6c1.9-0.1,3.8,0.5,5.2,1.7c1.3,1.2,2,2.9,1.9,4.6v11.9
	L102.7,25.4z M100.8,21.8c1-0.6,1.7-1.7,1.9-2.9v-1.8h-5.3c-1.1-0.1-2.2,0.1-3.2,0.6c-0.7,0.4-1.1,1.2-1,2.1c0,0.9,0.3,1.7,1,2.2
	c0.8,0.6,1.8,0.9,2.9,0.8C98.4,23,99.7,22.6,100.8,21.8L100.8,21.8z"/>
<path class="st1" d="M138.6,9.1c1.2,1.4,1.9,3.3,1.8,5.1v11.2h-3.2V15.1c0.1-1.3-0.4-2.6-1.2-3.6c-0.9-0.9-2.2-1.4-3.4-1.3
	c-1.5,0-3,0.7-4,1.8c-1,1.3-1.5,2.9-1.5,4.5v8.9h-3.3V15.1c0.1-1.3-0.4-2.6-1.2-3.6c-0.9-0.9-2.2-1.4-3.5-1.3c-1.6,0-3,0.6-4.1,1.8
	c-1,1.3-1.6,2.9-1.5,4.5v8.9h-3.2V7.3h3.2v3.8c1.2-2.6,3.4-3.9,6.7-3.9c1.5-0.1,2.9,0.4,4.2,1.2c1.2,0.8,2,2,2.3,3.4
	c1.1-3,3.5-4.5,7.1-4.6C135.6,7.1,137.4,7.8,138.6,9.1z"/>
<path class="st1" d="M152.7,10.2c-0.8-0.3-1.7-0.4-2.6-0.4c-0.8,0-1.6,0.1-2.3,0.5c-0.6,0.3-0.9,1-0.9,1.6c0,0.7,0.4,1.3,1,1.7
	c1,0.5,2,0.9,3,1.1c1.1,0.3,2.1,0.7,3.1,1.1c0.8,0.4,1.5,0.9,2,1.6c0.6,0.8,0.9,1.8,0.8,2.8c0.1,1.6-0.6,3-1.9,3.9
	c-1.4,0.9-3.1,1.4-4.8,1.3c-1.3,0-2.7-0.2-3.9-0.7c-1.2-0.4-2.3-1-3.2-1.8l1.2-2.3c0.8,0.7,1.8,1.3,2.8,1.7c1,0.4,2.1,0.6,3.2,0.6
	c0.9,0,1.8-0.2,2.5-0.6c0.6-0.4,1-1,1-1.8c0-0.8-0.3-1.5-1-1.8c-1-0.5-2-0.9-3.1-1.2c-1-0.3-2-0.6-3-1c-0.8-0.4-1.5-0.9-2-1.6
	c-0.6-0.8-0.9-1.7-0.8-2.7c-0.1-1.5,0.6-2.9,1.9-3.8c1.4-0.9,3-1.3,4.6-1.3c1.1,0,2.2,0.2,3.2,0.5c1,0.3,1.9,0.7,2.8,1.2l-1.2,2.4
	C154.4,10.9,153.6,10.5,152.7,10.2z"/>
<path class="st0" d="M165.9,0h3.2v25.4h-3.2V0z"/>
<path class="st0" d="M188.1,9.7c1.5,2,2.3,4.4,2.2,6.9c0,0.5,0,0.8,0,1h-14.4c0.2,1.5,0.9,2.9,2,3.9c1.1,1,2.6,1.5,4.1,1.4
	c1,0,2-0.2,3-0.6c0.9-0.4,1.7-0.9,2.4-1.7l1.8,1.8c-0.9,1-2,1.7-3.2,2.2c-1.3,0.5-2.7,0.8-4.2,0.8c-1.7,0-3.3-0.4-4.7-1.1
	c-1.3-0.8-2.5-1.9-3.2-3.2c-0.8-1.5-1.2-3.1-1.1-4.8c0-1.7,0.4-3.3,1.1-4.7c0.7-1.4,1.8-2.5,3.2-3.3c1.4-0.8,3.1-1.2,4.7-1.1
	C184.5,7.2,186.6,8,188.1,9.7z M187.3,15.1c0-2.9-2.3-5.3-5.2-5.3c-0.2,0-0.3,0-0.5,0c-1.5-0.1-2.9,0.5-4,1.4
	c-1.1,1-1.8,2.4-1.9,3.9H187.3z"/>
<path class="st0" d="M204.7,25.4v-2.5c-1.3,1.8-3.5,2.7-6.3,2.7c-1.1,0-2.3-0.2-3.3-0.7c-0.9-0.4-1.7-1.1-2.2-2
	c-0.5-0.9-0.8-1.8-0.8-2.8c-0.1-1.5,0.6-2.9,1.8-3.9c1.5-1,3.2-1.5,5-1.5h5.8v-0.9c0.1-1.1-0.4-2.2-1.2-3c-1-0.7-2.2-1.1-3.4-1
	c-2,0.1-4,0.8-5.6,2l-1.3-2.2c1.1-0.8,2.3-1.4,3.6-1.8c1.3-0.4,2.6-0.6,4-0.6c1.9-0.1,3.8,0.5,5.2,1.7c1.3,1.2,2,2.9,1.9,4.6v11.9
	L204.7,25.4z M202.8,21.8c1-0.6,1.7-1.7,1.9-2.9v-1.8h-5.3c-1.1-0.1-2.2,0.1-3.2,0.6c-0.7,0.4-1.1,1.2-1.1,2.1
	c0,0.9,0.4,1.7,1.1,2.2c0.8,0.6,1.8,0.9,2.8,0.8C200.4,23,201.8,22.6,202.8,21.8L202.8,21.8z"/>
</svg>
